<?xml version="1.0" encoding="utf-8"?>
<svg version="1.0" width="221.000000pt" height="213.000000pt" viewBox="0 0 221.000000 213.000000" preserveAspectRatio="xMidYMid meet" xmlns="http://www.w3.org/2000/svg">
  <g transform="translate(0.000000,213.000000) scale(0.100000,-0.100000)" fill="#000000" stroke="none">
    <path d="M335 1883 c-38 -54 -93 -127 -122 -162 -29 -36 -62 -88 -73 -117 -33 -89 -53 -230 -54 -374 -2 -248 34 -315 358 -677 115 -129 153 -216 171 -387 l7 -70 51 55 c128 135 179 263 158 400 -23 146 -94 269 -251 434 -56 59 -111 126 -121 149 -10 23 -34 103 -52 177 -37 143 -74 232 -106 249 -17 9 -21 5 -31 -26 -16 -47 2 -262 30 -362 24 -87 24 -79 0 -85 -16 -4 -25 6 -50 56 -39 79 -50 150 -50 312 0 145 8 168 58 178 24 5 38 21 75 84 25 43 55 100 66 126 21 48 29 137 13 137 -5 0 -40 -44 -77 -97z"/>
    <path d="M1736 1973 c-24 -24 6 -123 69 -233 45 -78 73 -110 95 -110 9 0 24 -8 33 -18 14 -16 17 -43 17 -165 0 -166 -10 -228 -52 -310 -25 -50 -31 -56 -48 -47 -18 10 -18 11 1 77 26 90 46 337 30 377 l-12 29 -29 -28 c-36 -34 -60 -95 -100 -256 -17 -67 -40 -140 -51 -162 -11 -21 -63 -84 -115 -139 -181 -192 -253 -332 -255 -498 -1 -70 3 -84 44 -173 36 -75 59 -110 108 -159 l63 -63 8 95 c13 168 63 261 242 450 234 247 297 389 283 640 -8 139 -33 273 -62 338 -13 29 -51 85 -83 125 -32 40 -83 107 -112 150 -56 82 -63 90 -74 80z"/>
    <path d="M421 1744 l-74 -125 25 -26 25 -25 36 59 c19 32 45 82 56 111 20 51 29 132 14 132 -5 0 -41 -57 -82 -126z"/>
    <path d="M1640 1835 c0 -43 26 -114 75 -200 l37 -67 24 23 c13 12 24 26 24 30 0 13 -145 249 -152 249 -5 0 -8 -16 -8 -35z"/>
    <path d="M536 1677 c-21 -39 -54 -97 -72 -128 -32 -54 -33 -58 -21 -100 l13 -43 26 44 c67 116 102 197 106 247 3 29 1 53 -4 53 -5 0 -27 -33 -48 -73z"/>
    <path d="M1565 1737 c-13 -33 3 -91 55 -193 72 -144 73 -145 90 -94 12 35 12 45 0 63 -8 12 -33 56 -56 97 -24 41 -52 91 -63 110 -16 30 -20 32 -26 17z"/>
    <path d="M777 1666 c-130 -48 -194 -198 -138 -321 56 -124 172 -125 287 -3 87 92 131 204 104 267 -7 18 -27 37 -48 47 -48 23 -156 28 -205 10z m83 -136 c41 -41 7 -120 -52 -120 -26 0 -68 44 -68 71 0 57 79 90 120 49z"/>
    <path d="M 1323 1535 C 1265.178 1518.947 1253 1456 1292 1420 C 1310 1403 1325 1400 1370 1402 C 1418 1405 1426 1408 1438 1432 C 1455 1468 1433.427 1530.603 1395 1540 C 1363.668 1547.662 1365.003 1546.661 1323 1535 Z"/>
    <path d="M985 1275 c-46 -17 -65 -38 -65 -75 0 -37 17 -55 83 -85 64 -30 71 -48 37 -95 -25 -35 -77 -60 -125 -60 -28 0 -43 7 -63 30 -31 35 -58 39 -67 10 -15 -48 57 -100 140 -100 48 0 95 18 132 52 l22 21 52 -34 c94 -60 207 -50 245 22 31 61 -11 81 -61 29 -62 -64 -177 -22 -200 72 -7 26 -4 29 57 57 65 29 78 43 78 85 0 71 -152 111 -265 71z"/>
  </g>
</svg>